<svg height="511pt" viewBox="-78 1 511 511.99897" width="511pt" xmlns="http://www.w3.org/2000/svg"><path d="m340.957031 0h-125.089843l-30.960938 77.886719 28.992188 5.457031c2.558593.480469 4.699218 2.226562 5.695312 4.632812.992188 2.40625.699219 5.152344-.777344 7.296876-.277344.402343-28.070312 40.785156-56.195312 80.414062-16.539063 23.3125-29.96875 41.816406-39.90625 55.003906-5.960938 7.910156-10.75 14.007813-14.226563 18.121094-4.070312 4.816406-7.675781 9.082031-12.292969 9.082031-.847656 0-1.726562-.140625-2.652343-.449219-8.257813-2.765624-6.382813-13.121093-4.003907-26.234374 1.652344-9.109376 4.367188-21.621094 8.066407-37.191407 4.191406-17.65625 8.738281-35.359375 11.308593-45.21875l-27.566406-5.570312c-2.296875-.464844-4.257812-1.949219-5.328125-4.035157-1.070312-2.085937-1.128906-4.542968-.164062-6.679687l59.851562-132.515625h-119.8125c-8.5 0-15.394531 6.894531-15.394531 15.394531v153.550781c0 47.34375 18.558594 91.976563 52.253906 125.671876 30.015625 30.015624 68.714844 48.007812 110.277344 51.582031v135.007812h-74.453125c-8.503906 0-15.394531 6.894531-15.394531 15.394531 0 8.503907 6.890625 15.398438 15.394531 15.398438h179.695313c8.503906 0 15.394531-6.894531 15.394531-15.398438 0-8.5-6.890625-15.394531-15.394531-15.394531h-74.453126v-135.007812c41.5625-3.574219 80.261719-21.566407 110.28125-51.582031 33.695313-33.695313 52.25-78.328126 52.25-125.671876v-153.550781c.003907-8.5-6.890624-15.394531-15.394531-15.394531zm0 0"/></svg>